<svg xmlns="http://www.w3.org/2000/svg" viewBox="0 0 320 72" fill="none">
  <!--
    VCMint Logo V2 — Typographic (Light / for dark backgrounds)
  -->

  <!-- Custom "V" -->
  <path d="M4 16 L26 58 L48 16" stroke="#F5F0EA" stroke-width="5.5" fill="none" stroke-linecap="square" stroke-linejoin="miter"/>

  <!-- "C" -->
  <path d="M88 20 C78 14, 62 14, 56 24 C50 34, 50 44, 56 52 C62 60, 78 60, 88 54" stroke="#F5F0EA" stroke-width="5" fill="none" stroke-linecap="round"/>

  <!-- "M" -->
  <path d="M104 58 L104 18 L122 44 L140 18 L140 58" stroke="#C8784A" stroke-width="5" fill="none" stroke-linecap="square" stroke-linejoin="miter"/>

  <!-- "i" with diamond dot -->
  <line x1="156" y1="30" x2="156" y2="58" stroke="#C8784A" stroke-width="5" stroke-linecap="square"/>
  <path d="M156 14 L160.5 19 L156 24 L151.5 19 Z" fill="#C8784A"/>

  <!-- "n" -->
  <path d="M174 58 L174 30 C174 22, 186 22, 192 28 L192 58" stroke="#C8784A" stroke-width="5" fill="none" stroke-linecap="square" stroke-linejoin="round"/>

  <!-- "t" -->
  <line x1="212" y1="14" x2="212" y2="58" stroke="#C8784A" stroke-width="5" stroke-linecap="square"/>
  <line x1="200" y1="28" x2="224" y2="28" stroke="#C8784A" stroke-width="4" stroke-linecap="round"/>

  <!-- Horizontal rule accent -->
  <line x1="4" y1="66" x2="224" y2="66" stroke="#C8784A" stroke-width="1.5" opacity="0.3"/>
</svg>
